# xmcd CD database file
#
# Track frame offsets:
#	150
#	13370
#	27543
#	42617
#	53716
#	67753
#	82642
#	96667
#	109351
#	120263
#	132702
#	146732
#	159222
#	169775
#
# Disc length: 2406 seconds
#
# Revision: 0
# Processed by: cddbd v1.5.2PL0 Copyright (c) Steve Scherf et al.
# Submitted via: CDex 1.70beta2
#
DISCID=c109640e
DTITLE=Divers - Jazzmag n°602 - 04-2009 - Autres voix
DYEAR=1900
DGENRE=Jazz
TTITLE0=Valaida Snow - The mood that I'm in
TTITLE1=Leo Watson - Scattin' the blues
TTITLE2=Kay Davis - On a turquoise cloud
TTITLE3=Nellie Lutcher - That's a plenty
TTITLE4=Little Jimmy Scott - The bluest blues
TTITLE5=Gloria Wood - Hey Bellboy
TTITLE6=Mel Torme - Berbnie's tune
TTITLE7=Betty Bennett - Treat me rough
TTITLE8=Frank Sinatra - Get happy
TTITLE9=Ernestine Anderson - Social call
TTITLE10=Johnny Hartman - I get a kick out of you
TTITLE11=Blossom Dearie - Lover Man
TTITLE12=Lorez Alexandria - Fine and dandy
TTITLE13=Anita O'Day - Four brothers
EXTD=
EXTT0=
EXTT1=
EXTT2=
EXTT3=
EXTT4=
EXTT5=
EXTT6=
EXTT7=
EXTT8=
EXTT9=
EXTT10=
EXTT11=
EXTT12=
EXTT13=
PLAYORDER=
